<svg id="visual" viewBox="0 0 900 600" width="900" height="600" xmlns="http://www.w3.org/2000/svg" xmlns:xlink="http://www.w3.org/1999/xlink" version="1.1"><g stroke-width="1" stroke-linejoin="bevel"><path d="M436 329L504 434L478 322Z" fill="#205a7a" stroke="#205a7a"></path><path d="M436 329L407 430L504 434Z" fill="#277297" stroke="#277297"></path><path d="M407 430L517 462L504 434Z" fill="#277297" stroke="#277297"></path><path d="M504 434L564 414L478 322Z" fill="#205a7a" stroke="#205a7a"></path><path d="M517 462L564 414L504 434Z" fill="#15384f" stroke="#15384f"></path><path d="M436 329L333 393L407 430Z" fill="#1d4e6b" stroke="#1d4e6b"></path><path d="M333 393L372 504L407 430Z" fill="#1d4e6b" stroke="#1d4e6b"></path><path d="M407 430L372 504L517 462Z" fill="#277297" stroke="#277297"></path><path d="M538 600L568 511L517 462Z" fill="#15384f" stroke="#15384f"></path><path d="M517 462L568 511L564 414Z" fill="#277297" stroke="#277297"></path><path d="M585 237L475 209L478 322Z" fill="#1d4e6b" stroke="#1d4e6b"></path><path d="M478 322L475 209L436 329Z" fill="#205a7a" stroke="#205a7a"></path><path d="M436 329L315 268L333 393Z" fill="#0c2435" stroke="#0c2435"></path><path d="M475 209L399 218L436 329Z" fill="#246688" stroke="#246688"></path><path d="M630 286L478 322L564 414Z" fill="#081a28" stroke="#081a28"></path><path d="M630 286L585 237L478 322Z" fill="#081a28" stroke="#081a28"></path><path d="M702 373L630 286L564 414Z" fill="#0c2435" stroke="#0c2435"></path><path d="M399 218L315 268L436 329Z" fill="#246688" stroke="#246688"></path><path d="M218 466L293 515L333 393Z" fill="#081a28" stroke="#081a28"></path><path d="M333 393L293 515L372 504Z" fill="#081a28" stroke="#081a28"></path><path d="M372 504L538 600L517 462Z" fill="#19435d" stroke="#19435d"></path><path d="M380 600L538 600L372 504Z" fill="#205a7a" stroke="#205a7a"></path><path d="M293 515L380 600L372 504Z" fill="#081a28" stroke="#081a28"></path><path d="M666 513L564 414L568 511Z" fill="#0c2435" stroke="#0c2435"></path><path d="M666 513L702 373L564 414Z" fill="#15384f" stroke="#15384f"></path><path d="M604 600L666 513L568 511Z" fill="#19435d" stroke="#19435d"></path><path d="M702 373L694 277L630 286Z" fill="#297ea6" stroke="#297ea6"></path><path d="M630 286L686 163L585 237Z" fill="#246688" stroke="#246688"></path><path d="M538 600L604 600L568 511Z" fill="#205a7a" stroke="#205a7a"></path><path d="M185 434L218 466L333 393Z" fill="#0c2435" stroke="#0c2435"></path><path d="M293 515L293 600L380 600Z" fill="#205a7a" stroke="#205a7a"></path><path d="M365 95L289 191L399 218Z" fill="#0c2435" stroke="#0c2435"></path><path d="M399 218L289 191L315 268Z" fill="#19435d" stroke="#19435d"></path><path d="M315 268L217 302L333 393Z" fill="#081a28" stroke="#081a28"></path><path d="M289 191L217 302L315 268Z" fill="#246688" stroke="#246688"></path><path d="M173 600L293 600L293 515Z" fill="#00101c" stroke="#00101c"></path><path d="M217 302L185 434L333 393Z" fill="#246688" stroke="#246688"></path><path d="M218 466L173 600L293 515Z" fill="#081a28" stroke="#081a28"></path><path d="M585 237L511 96L475 209Z" fill="#0c2435" stroke="#0c2435"></path><path d="M475 209L365 95L399 218Z" fill="#00101c" stroke="#00101c"></path><path d="M635 112L511 96L585 237Z" fill="#297ea6" stroke="#297ea6"></path><path d="M511 96L365 95L475 209Z" fill="#00101c" stroke="#00101c"></path><path d="M725 120L686 163L837 179Z" fill="#1d4e6b" stroke="#1d4e6b"></path><path d="M694 277L686 163L630 286Z" fill="#297ea6" stroke="#297ea6"></path><path d="M604 600L698 600L666 513Z" fill="#205a7a" stroke="#205a7a"></path><path d="M666 513L775 513L702 373Z" fill="#0c2435" stroke="#0c2435"></path><path d="M686 163L635 112L585 237Z" fill="#277297" stroke="#277297"></path><path d="M365 95L265 134L289 191Z" fill="#0c2435" stroke="#0c2435"></path><path d="M289 191L228 168L217 302Z" fill="#297ea6" stroke="#297ea6"></path><path d="M265 134L228 168L289 191Z" fill="#246688" stroke="#246688"></path><path d="M217 302L103 327L185 434Z" fill="#0c2435" stroke="#0c2435"></path><path d="M698 600L775 513L666 513Z" fill="#15384f" stroke="#15384f"></path><path d="M702 373L830 267L694 277Z" fill="#19435d" stroke="#19435d"></path><path d="M775 513L827 432L702 373Z" fill="#081a28" stroke="#081a28"></path><path d="M110 504L173 600L218 466Z" fill="#0c2435" stroke="#0c2435"></path><path d="M132 202L103 327L217 302Z" fill="#297ea6" stroke="#297ea6"></path><path d="M185 434L110 504L218 466Z" fill="#205a7a" stroke="#205a7a"></path><path d="M837 179L686 163L694 277Z" fill="#00101c" stroke="#00101c"></path><path d="M686 163L725 120L635 112Z" fill="#00101c" stroke="#00101c"></path><path d="M604 0L519 0L511 96Z" fill="#246688" stroke="#246688"></path><path d="M78 439L110 504L185 434Z" fill="#0c2435" stroke="#0c2435"></path><path d="M228 168L132 202L217 302Z" fill="#19435d" stroke="#19435d"></path><path d="M167 106L132 202L228 168Z" fill="#205a7a" stroke="#205a7a"></path><path d="M827 432L830 267L702 373Z" fill="#112e42" stroke="#112e42"></path><path d="M604 0L511 96L635 112Z" fill="#19435d" stroke="#19435d"></path><path d="M511 96L373 0L365 95Z" fill="#112e42" stroke="#112e42"></path><path d="M365 95L301 0L265 134Z" fill="#1d4e6b" stroke="#1d4e6b"></path><path d="M265 134L167 106L228 168Z" fill="#112e42" stroke="#112e42"></path><path d="M103 327L78 439L185 434Z" fill="#1d4e6b" stroke="#1d4e6b"></path><path d="M519 0L373 0L511 96Z" fill="#246688" stroke="#246688"></path><path d="M677 0L604 0L635 112Z" fill="#081a28" stroke="#081a28"></path><path d="M698 600L812 600L775 513Z" fill="#081a28" stroke="#081a28"></path><path d="M775 513L900 533L827 432Z" fill="#00101c" stroke="#00101c"></path><path d="M197 0L167 106L265 134Z" fill="#277297" stroke="#277297"></path><path d="M373 0L301 0L365 95Z" fill="#246688" stroke="#246688"></path><path d="M830 267L837 179L694 277Z" fill="#297ea6" stroke="#297ea6"></path><path d="M725 120L677 0L635 112Z" fill="#246688" stroke="#246688"></path><path d="M900 188L837 179L830 267Z" fill="#081a28" stroke="#081a28"></path><path d="M900 533L900 374L827 432Z" fill="#246688" stroke="#246688"></path><path d="M827 432L900 374L830 267Z" fill="#0c2435" stroke="#0c2435"></path><path d="M798 0L677 0L725 120Z" fill="#00101c" stroke="#00101c"></path><path d="M0 511L78 600L110 504Z" fill="#297ea6" stroke="#297ea6"></path><path d="M110 504L78 600L173 600Z" fill="#246688" stroke="#246688"></path><path d="M900 374L900 278L830 267Z" fill="#15384f" stroke="#15384f"></path><path d="M900 188L832 113L837 179Z" fill="#205a7a" stroke="#205a7a"></path><path d="M837 179L832 113L725 120Z" fill="#277297" stroke="#277297"></path><path d="M812 600L900 533L775 513Z" fill="#297ea6" stroke="#297ea6"></path><path d="M103 327L0 388L78 439Z" fill="#081a28" stroke="#081a28"></path><path d="M78 439L0 511L110 504Z" fill="#112e42" stroke="#112e42"></path><path d="M0 312L0 388L103 327Z" fill="#081a28" stroke="#081a28"></path><path d="M0 312L103 327L132 202Z" fill="#19435d" stroke="#19435d"></path><path d="M301 0L197 0L265 134Z" fill="#297ea6" stroke="#297ea6"></path><path d="M167 106L72 128L132 202Z" fill="#19435d" stroke="#19435d"></path><path d="M128 0L72 128L167 106Z" fill="#1d4e6b" stroke="#1d4e6b"></path><path d="M0 173L0 312L132 202Z" fill="#00101c" stroke="#00101c"></path><path d="M900 278L900 188L830 267Z" fill="#0c2435" stroke="#0c2435"></path><path d="M0 388L0 511L78 439Z" fill="#277297" stroke="#277297"></path><path d="M812 600L900 600L900 533Z" fill="#297ea6" stroke="#297ea6"></path><path d="M900 60L798 0L832 113Z" fill="#00101c" stroke="#00101c"></path><path d="M832 113L798 0L725 120Z" fill="#297ea6" stroke="#297ea6"></path><path d="M197 0L128 0L167 106Z" fill="#15384f" stroke="#15384f"></path><path d="M0 109L0 173L72 128Z" fill="#277297" stroke="#277297"></path><path d="M72 128L0 173L132 202Z" fill="#15384f" stroke="#15384f"></path><path d="M0 511L0 600L78 600Z" fill="#112e42" stroke="#112e42"></path><path d="M900 188L900 60L832 113Z" fill="#297ea6" stroke="#297ea6"></path><path d="M0 0L0 109L72 128Z" fill="#112e42" stroke="#112e42"></path><path d="M900 60L900 0L798 0Z" fill="#081a28" stroke="#081a28"></path><path d="M128 0L0 0L72 128Z" fill="#15384f" stroke="#15384f"></path></g></svg>